<svg width="293" height="156" viewBox="0 0 293 156" fill="none" xmlns="http://www.w3.org/2000/svg">
<rect x="0.5" y="0.5" width="370" height="79" fill="url(#paint0_linear_1321_1478)" fill-opacity="0.3" stroke="url(#paint1_linear_1321_1478)"/>
<text fill="white" xml:space="preserve" style="white-space: pre" font-family="Proxima Nova Condensed" font-size="26" font-style="italic" font-weight="bold" letter-spacing="0em"><tspan x="123" y="33.086">EYES </tspan></text>
<text fill="#9643FF" xml:space="preserve" style="white-space: pre" font-family="Proxima Nova Condensed" font-size="26" font-style="italic" font-weight="bold" letter-spacing="0em"><tspan x="180.434" y="33.086">STORE</tspan></text>
<text fill="white" xml:space="preserve" style="white-space: pre" font-family="Montserrat" font-size="20" font-weight="500" letter-spacing="0em"><tspan x="48" y="56.17">20:58</tspan></text>
<text fill="#A6A6A6" xml:space="preserve" style="white-space: pre" font-family="Montserrat" font-size="16" font-weight="500" letter-spacing="0em"><tspan x="108" y="55.736">16.06</tspan></text>
<text fill="#E7E7E7" xml:space="preserve" style="white-space: pre" font-family="Montserrat" font-size="13" font-weight="500" letter-spacing="0em"><tspan x="168" y="55.6605">432</tspan></text>
<text fill="#E7E7E7" xml:space="preserve" style="white-space: pre" font-family="Montserrat" font-size="13" font-weight="500" letter-spacing="0em"><tspan x="214" y="55.6605">34 </tspan></text>
<text fill="#E7E7E7" fill-opacity="0.49" xml:space="preserve" style="white-space: pre" font-family="Montserrat" font-size="10" font-weight="500" letter-spacing="0em"><tspan x="233.627" y="55.6605">ms</tspan></text>
<circle cx="160" cy="51" r="4" fill="#1CCB00"/>
<g clip-path="url(#clip0_1321_1478)">
<path d="M208.2 54V46H210V54H208.2ZM205.8 48H207.6V54H205.8V48ZM203.4 50H205.2V54H203.4V50ZM201 52H202.8V54H201V52Z" fill="#1CCB00"/>
</g>
<rect x="179" y="95" width="43" height="5" fill="#D9D9D9" fill-opacity="0.56"/>
<rect x="128" y="95" width="43" height="5" fill="#D9D9D9" fill-opacity="0.56"/>
<rect x="77" y="95" width="43" height="5" fill="#D9D9D9" fill-opacity="0.56"/>
<path d="M243.902 96.088V97.6069C243.902 98.5468 243.52 99.4482 242.841 100.113C242.161 100.777 241.24 101.151 240.279 101.151C239.319 101.151 238.397 100.777 237.718 100.113C237.039 99.4482 236.657 98.5468 236.657 97.6069V96.088H235.622V97.6069C235.623 98.7273 236.045 99.8083 236.809 100.643C237.572 101.478 238.624 102.009 239.762 102.133V103.176H237.692V104.189H242.867V103.176H240.797V102.133C241.935 102.009 242.986 101.478 243.75 100.643C244.514 99.8083 244.936 98.7273 244.937 97.6069V96.088H243.902Z" fill="white" fill-opacity="0.55"/>
<path d="M240.28 100.138C240.966 100.138 241.624 99.8716 242.109 99.3968C242.595 98.9221 242.867 98.2782 242.867 97.6068V92.544C242.867 91.8726 242.595 91.2287 242.109 90.754C241.624 90.2793 240.966 90.0126 240.28 90.0126C239.594 90.0126 238.935 90.2793 238.45 90.754C237.965 91.2287 237.692 91.8726 237.692 92.544V97.6068C237.692 98.2782 237.965 98.9221 238.45 99.3968C238.935 99.8716 239.594 100.138 240.28 100.138ZM238.727 92.544C238.727 92.1412 238.891 91.7548 239.182 91.47C239.473 91.1852 239.868 91.0251 240.28 91.0251C240.692 91.0251 241.086 91.1852 241.378 91.47C241.669 91.7548 241.832 92.1412 241.832 92.544V97.6068C241.832 98.0097 241.669 98.396 241.378 98.6808C241.086 98.9657 240.692 99.1257 240.28 99.1257C239.868 99.1257 239.473 98.9657 239.182 98.6808C238.891 98.396 238.727 98.0097 238.727 97.6068V92.544Z" fill="white" fill-opacity="0.55"/>
<rect x="108" y="115" width="226" height="41" fill="url(#paint2_linear_1321_1478)" fill-opacity="0.3"/>
<path d="M269.5 125C267.423 125 265.393 125.586 263.667 126.685C261.94 127.784 260.594 129.346 259.799 131.173C259.005 133 258.797 135.011 259.202 136.951C259.607 138.891 260.607 140.673 262.075 142.071C263.544 143.47 265.415 144.422 267.452 144.808C269.488 145.194 271.6 144.996 273.518 144.239C275.437 143.482 277.077 142.2 278.23 140.556C279.384 138.911 280 136.978 280 135C279.997 132.349 278.89 129.807 276.921 127.932C274.953 126.058 272.284 125.003 269.5 125V125ZM270.712 139.615H270.308V140.385C270.308 140.589 270.223 140.784 270.071 140.929C269.92 141.073 269.714 141.154 269.5 141.154C269.286 141.154 269.08 141.073 268.929 140.929C268.777 140.784 268.692 140.589 268.692 140.385V139.615H267.077C266.863 139.615 266.657 139.534 266.506 139.39C266.354 139.246 266.269 139.05 266.269 138.846C266.269 138.642 266.354 138.446 266.506 138.302C266.657 138.158 266.863 138.077 267.077 138.077H270.712C271.033 138.077 271.341 137.955 271.568 137.739C271.795 137.523 271.923 137.229 271.923 136.923C271.923 136.617 271.795 136.324 271.568 136.107C271.341 135.891 271.033 135.769 270.712 135.769H268.288C267.539 135.769 266.82 135.486 266.29 134.981C265.759 134.476 265.462 133.791 265.462 133.077C265.462 132.363 265.759 131.678 266.29 131.173C266.82 130.668 267.539 130.385 268.288 130.385H268.692V129.615C268.692 129.411 268.777 129.216 268.929 129.071C269.08 128.927 269.286 128.846 269.5 128.846C269.714 128.846 269.92 128.927 270.071 129.071C270.223 129.216 270.308 129.411 270.308 129.615V130.385H271.923C272.137 130.385 272.343 130.466 272.494 130.61C272.646 130.754 272.731 130.95 272.731 131.154C272.731 131.358 272.646 131.554 272.494 131.698C272.343 131.842 272.137 131.923 271.923 131.923H268.288C267.967 131.923 267.659 132.045 267.432 132.261C267.205 132.477 267.077 132.771 267.077 133.077C267.077 133.383 267.205 133.676 267.432 133.893C267.659 134.109 267.967 134.231 268.288 134.231H270.712C271.461 134.231 272.18 134.514 272.71 135.019C273.241 135.524 273.538 136.209 273.538 136.923C273.538 137.637 273.241 138.322 272.71 138.827C272.18 139.332 271.461 139.615 270.712 139.615V139.615Z" fill="#88FF00"/>
<text fill="#88FF00" xml:space="preserve" style="white-space: pre" font-family="Montserrat" font-size="17" font-style="italic" font-weight="600" letter-spacing="0em"><tspan x="139" y="141.594">350.000.000</tspan></text>
<path d="M265 94.6666C264.528 94.6659 264.07 94.8428 263.709 95.1659C263.348 95.4891 263.106 95.9378 263.026 96.4324C262.946 96.927 263.033 97.4357 263.273 97.8683C263.512 98.301 263.888 98.6297 264.333 98.7962C264.33 98.8363 264.33 98.8766 264.333 98.9166V103.167C264.333 103.354 264.404 103.535 264.529 103.667C264.654 103.8 264.823 103.875 265 103.875C265.177 103.875 265.346 103.8 265.471 103.667C265.596 103.535 265.667 103.354 265.667 103.167V98.9166C265.67 98.8766 265.67 98.8363 265.667 98.7962C266.112 98.6297 266.488 98.301 266.727 97.8683C266.967 97.4357 267.054 96.927 266.974 96.4324C266.894 95.9378 266.652 95.4891 266.291 95.1659C265.93 94.8428 265.472 94.6659 265 94.6666ZM265 97.5C264.868 97.5 264.739 97.4584 264.63 97.3806C264.52 97.3027 264.435 97.1921 264.384 97.0627C264.334 96.9333 264.32 96.7908 264.346 96.6534C264.372 96.516 264.435 96.3898 264.529 96.2908C264.622 96.1917 264.741 96.1242 264.87 96.0969C264.999 96.0696 265.133 96.0836 265.255 96.1372C265.377 96.1908 265.481 96.2816 265.554 96.3981C265.628 96.5146 265.667 96.6515 265.667 96.7916C265.667 96.9795 265.596 97.1596 265.471 97.2925C265.346 97.4253 265.177 97.5 265 97.5ZM259.333 96.7916C259.352 96.0745 259.519 95.3704 259.823 94.73C260.127 94.0895 260.561 93.5285 261.093 93.087C261.229 92.9668 261.315 92.794 261.331 92.6067C261.348 92.4194 261.293 92.2329 261.18 92.0883C261.124 92.0167 261.055 91.9575 260.978 91.9141C260.9 91.8707 260.815 91.8439 260.728 91.8354C260.552 91.8181 260.376 91.876 260.24 91.9962C259.556 92.5699 259.001 93.2975 258.613 94.1267C258.226 94.9559 258.017 95.8661 258 96.7916C258.017 97.7172 258.226 98.6273 258.613 99.4565C259.001 100.286 259.556 101.013 260.24 101.587C260.307 101.647 260.385 101.691 260.469 101.719C260.553 101.747 260.641 101.756 260.728 101.748C260.815 101.739 260.9 101.713 260.978 101.669C261.055 101.626 261.124 101.567 261.18 101.495C261.236 101.423 261.278 101.341 261.304 101.252C261.33 101.163 261.339 101.069 261.331 100.977C261.323 100.884 261.298 100.794 261.257 100.711C261.216 100.629 261.161 100.556 261.093 100.496C260.561 100.055 260.127 99.4937 259.823 98.8532C259.519 98.2128 259.352 97.5088 259.333 96.7916V96.7916Z" fill="#B8FF43"/>
<path d="M268.093 93.42C267.957 93.3237 267.792 93.2841 267.63 93.3087C267.467 93.3334 267.32 93.4206 267.214 93.5537C267.109 93.6867 267.053 93.8564 267.058 94.0303C267.062 94.2042 267.127 94.3702 267.24 94.4966C267.569 94.7706 267.838 95.1182 268.027 95.5148C268.216 95.9114 268.32 96.3473 268.333 96.7916C268.32 97.2359 268.216 97.6718 268.027 98.0684C267.838 98.465 267.569 98.8126 267.24 99.0866C267.137 99.1803 267.063 99.3053 267.028 99.4447C266.994 99.5842 267 99.7315 267.046 99.8671C267.093 100.003 267.177 100.12 267.288 100.203C267.399 100.286 267.531 100.332 267.666 100.333C267.823 100.332 267.974 100.271 268.093 100.163C268.574 99.7603 268.965 99.2487 269.237 98.6656C269.509 98.0825 269.656 97.4424 269.666 96.7916C269.656 96.1409 269.509 95.5008 269.237 94.9177C268.965 94.3345 268.574 93.823 268.093 93.42V93.42ZM262.84 93.505C262.726 93.3632 262.564 93.2748 262.389 93.2589C262.215 93.243 262.041 93.3009 261.906 93.42C261.425 93.823 261.035 94.3345 260.763 94.9177C260.49 95.5008 260.344 96.1409 260.333 96.7916C260.344 97.4424 260.49 98.0825 260.763 98.6656C261.035 99.2487 261.425 99.7603 261.906 100.163C262.041 100.282 262.215 100.34 262.389 100.324C262.564 100.308 262.726 100.22 262.84 100.078C262.952 99.935 263.006 99.7506 262.991 99.565C262.976 99.3794 262.893 99.2075 262.76 99.0866C262.43 98.8126 262.162 98.465 261.973 98.0684C261.784 97.6718 261.679 97.2359 261.666 96.7916C261.679 96.3473 261.784 95.9114 261.973 95.5148C262.162 95.1182 262.43 94.7706 262.76 94.4966C262.893 94.3757 262.976 94.2039 262.991 94.0182C263.006 93.8326 262.952 93.6482 262.84 93.505V93.505Z" fill="#B8FF43"/>
<path d="M269.76 91.9962C269.693 91.9367 269.615 91.8918 269.531 91.8642C269.448 91.8366 269.36 91.8268 269.272 91.8354C269.185 91.8439 269.1 91.8707 269.023 91.9141C268.945 91.9575 268.876 92.0167 268.82 92.0883C268.764 92.1599 268.722 92.2426 268.696 92.3315C268.67 92.4205 268.661 92.514 268.669 92.6067C268.677 92.6995 268.702 92.7896 268.743 92.872C268.784 92.9544 268.839 93.0275 268.907 93.087C269.439 93.5285 269.873 94.0895 270.177 94.73C270.481 95.3704 270.649 96.0745 270.667 96.7916C270.649 97.5088 270.481 98.2128 270.177 98.8532C269.873 99.4937 269.439 100.055 268.907 100.496C268.771 100.616 268.685 100.789 268.669 100.977C268.653 101.164 268.707 101.35 268.82 101.495C268.933 101.64 269.096 101.731 269.272 101.748C269.449 101.765 269.624 101.707 269.76 101.587C270.444 101.013 271 100.286 271.387 99.4565C271.774 98.6273 271.984 97.7172 272 96.7916C271.984 95.8661 271.774 94.9559 271.387 94.1267C271 93.2975 270.444 92.5699 269.76 91.9962V91.9962Z" fill="#B8FF43"/>
<defs>
<linearGradient id="paint0_linear_1321_1478" x1="293" y1="27.5" x2="26" y2="30.5" gradientUnits="userSpaceOnUse">
<stop stop-color="#9643FF"/>
<stop offset="1" stop-color="#FFA800" stop-opacity="0"/>
</linearGradient>
<linearGradient id="paint1_linear_1321_1478" x1="295.5" y1="30" x2="65.5" y2="27" gradientUnits="userSpaceOnUse">
<stop stop-color="#9643FF"/>
<stop offset="0.96875" stop-color="#9643FF" stop-opacity="0"/>
</linearGradient>
<linearGradient id="paint2_linear_1321_1478" x1="286.485" y1="129.094" x2="123.847" y2="131.266" gradientUnits="userSpaceOnUse">
<stop stop-color="#88FF00"/>
<stop offset="1" stop-color="#88FF00" stop-opacity="0"/>
</linearGradient>
<clipPath id="clip0_1321_1478">
<rect width="9" height="8" fill="white" transform="translate(201 46)"/>
</clipPath>
</defs>
</svg>
