<svg width="405" height="167" viewBox="0 0 405 167" fill="none" xmlns="http://www.w3.org/2000/svg">
<g filter="url(#filter0_dd_1315_2405)">
<rect x="29" y="17" width="347" height="109" fill="#090A0E" fill-opacity="0.65" shape-rendering="crispEdges"/>
<rect x="26.5" y="14.5" width="352" height="114" stroke="#090A0E" stroke-opacity="0.4" stroke-width="5" shape-rendering="crispEdges"/>
<rect width="48" height="109" transform="translate(29 17)" fill="#090A0E" fill-opacity="0.42"/>
<path d="M57.58 67.2053C57.9666 66.8187 57.9666 66.1919 57.58 65.8053L57.3694 65.5946C56.9828 65.208 56.356 65.208 55.9694 65.5946L53.0004 68.5636L50.0315 65.5946C49.6449 65.208 49.0181 65.208 48.6315 65.5946L48.4208 65.8053C48.0342 66.1919 48.0342 66.8187 48.4208 67.2053L51.3898 70.1743L48.4208 73.1432C48.0342 73.5298 48.0342 74.1566 48.4208 74.5432L48.6315 74.7539C49.0181 75.1405 49.6449 75.1405 50.0315 74.7539L53.0004 71.7849L55.9694 74.7539C56.356 75.1405 56.9828 75.1405 57.3694 74.7539L57.58 74.5432C57.9666 74.1566 57.9666 73.5298 57.58 73.1432L54.6111 70.1743L57.58 67.2053Z" fill="white"/>
<path d="M67.1643 70.2788C67.1643 69.4504 66.4927 68.7788 65.6643 68.7788C64.8359 68.7788 64.1643 69.4504 64.1643 70.2788L67.1643 70.2788ZM64.7134 74.9777L63.3311 74.3952L64.7134 74.9777ZM62.0054 78.9612L60.9539 77.8915L62.0054 78.9612ZM57.9526 81.6229L57.387 80.2336L57.9526 81.6229ZM53.172 82.5576L53.172 81.0576L53.172 82.5576ZM48.3914 81.6229L48.957 80.2336L48.3914 81.6229ZM44.3386 78.9612L45.3901 77.8914L44.3386 78.9612ZM41.6306 74.9777L43.0129 74.3952L41.6306 74.9777ZM40.6797 70.2788L42.1797 70.2788L40.6797 70.2788ZM41.6306 65.5799L43.0129 66.1624L41.6306 65.5799ZM44.3386 61.5964L45.3901 62.6661L44.3386 61.5964ZM48.3914 58.9347L48.957 60.3239L48.957 60.3239L48.3914 58.9347ZM53.172 58L53.172 59.5L53.172 58ZM57.9526 58.9347L57.387 60.3239L57.9526 58.9347ZM62.0054 61.5964L60.9539 62.6661L62.0054 61.5964ZM64.7134 65.5799L63.3311 66.1624L64.7134 65.5799ZM64.1643 70.2788C64.1643 71.1072 64.8359 71.7788 65.6643 71.7788C66.4927 71.7788 67.1643 71.1072 67.1643 70.2788H64.1643ZM64.1643 70.2788C64.1643 71.6907 63.8814 73.0893 63.3311 74.3952L66.0957 75.5602C66.8009 73.8866 67.1643 72.0919 67.1643 70.2788L64.1643 70.2788ZM63.3311 74.3952C62.7808 75.7011 61.9734 76.8893 60.9539 77.8915L63.0569 80.031C64.3574 78.7527 65.3904 77.2338 66.0957 75.5602L63.3311 74.3952ZM60.9539 77.8915C59.9343 78.8936 58.7225 79.6899 57.387 80.2336L58.5182 83.0122C60.214 82.3218 61.7564 81.3092 63.0569 80.031L60.9539 77.8915ZM57.387 80.2336C56.0514 80.7774 54.6191 81.0576 53.172 81.0576L53.172 84.0576C55.0059 84.0576 56.8225 83.7026 58.5182 83.0122L57.387 80.2336ZM53.172 81.0576C51.7249 81.0576 50.2926 80.7774 48.957 80.2336L47.8258 83.0122C49.5215 83.7026 51.3381 84.0576 53.172 84.0576L53.172 81.0576ZM48.957 80.2336C47.6215 79.6899 46.4097 78.8936 45.3901 77.8914L43.2871 80.031C44.5876 81.3092 46.13 82.3218 47.8258 83.0122L48.957 80.2336ZM45.3901 77.8914C44.3705 76.8893 43.5632 75.7011 43.0129 74.3952L40.2483 75.5602C40.9536 77.2338 41.9866 78.7527 43.2871 80.031L45.3901 77.8914ZM43.0129 74.3952C42.4626 73.0893 42.1797 71.6907 42.1797 70.2788L39.1797 70.2788C39.1797 72.0919 39.543 73.8866 40.2483 75.5602L43.0129 74.3952ZM42.1797 70.2788C42.1797 68.8669 42.4626 67.4683 43.0129 66.1624L40.2483 64.9974C39.543 66.671 39.1797 68.4657 39.1797 70.2788L42.1797 70.2788ZM43.0129 66.1624C43.5632 64.8565 44.3705 63.6682 45.3901 62.6661L43.2871 60.5266C41.9866 61.8049 40.9536 63.3238 40.2483 64.9974L43.0129 66.1624ZM45.3901 62.6661C46.4097 61.664 47.6215 60.8677 48.957 60.3239L47.8258 57.5454C46.13 58.2358 44.5876 59.2484 43.2871 60.5266L45.3901 62.6661ZM48.957 60.3239C50.2926 59.7802 51.7249 59.5 53.172 59.5L53.172 56.5C51.3381 56.5 49.5215 56.855 47.8258 57.5454L48.957 60.3239ZM53.172 59.5C54.6191 59.5 56.0514 59.7802 57.387 60.3239L58.5182 57.5454C56.8225 56.855 55.0059 56.5 53.172 56.5L53.172 59.5ZM57.387 60.3239C58.7225 60.8677 59.9343 61.664 60.9539 62.6661L63.0569 60.5266C61.7564 59.2484 60.214 58.2358 58.5182 57.5454L57.387 60.3239ZM60.9539 62.6661C61.9734 63.6682 62.7808 64.8565 63.3311 66.1624L66.0957 64.9974C65.3904 63.3238 64.3574 61.8049 63.0569 60.5266L60.9539 62.6661ZM63.3311 66.1624C63.8814 67.4683 64.1643 68.8669 64.1643 70.2788L67.1643 70.2788C67.1643 68.4657 66.8009 66.671 66.0957 64.9974L63.3311 66.1624ZM67.1643 70.2788V70.2788H64.1643V70.2788H67.1643Z" fill="#FF0A27"/>
<text fill="white" xml:space="preserve" style="white-space: pre" font-family="Proxima Nova" font-size="14" font-weight="bold" letter-spacing="0px"><tspan x="93" y="37.56">Payment failed &#x1f92c; </tspan></text>
<text fill="white" xml:space="preserve" style="white-space: pre" font-family="Proxima Nova" font-size="14" letter-spacing="0px"><tspan x="93" y="61.56">There&#39;s not enough money in your </tspan><tspan x="93" y="81.56">balance. Top up your balance and try again</tspan></text>
<text fill="#FF0A27" xml:space="preserve" style="white-space: pre" font-family="Stapel" font-size="14" letter-spacing="0px"><tspan x="93" y="109.42">Error</tspan></text>
</g>
<defs>
<filter id="filter0_dd_1315_2405" x="0" y="0" width="405" height="167" filterUnits="userSpaceOnUse" color-interpolation-filters="sRGB">
<feFlood flood-opacity="0" result="BackgroundImageFix"/>
<feColorMatrix in="SourceAlpha" type="matrix" values="0 0 0 0 0 0 0 0 0 0 0 0 0 0 0 0 0 0 127 0" result="hardAlpha"/>
<feOffset dy="12"/>
<feGaussianBlur stdDeviation="12"/>
<feComposite in2="hardAlpha" operator="out"/>
<feColorMatrix type="matrix" values="0 0 0 0 0 0 0 0 0 0 0 0 0 0 0 0 0 0 0.2 0"/>
<feBlend mode="normal" in2="BackgroundImageFix" result="effect1_dropShadow_1315_2405"/>
<feColorMatrix in="SourceAlpha" type="matrix" values="0 0 0 0 0 0 0 0 0 0 0 0 0 0 0 0 0 0 127 0" result="hardAlpha"/>
<feOffset dy="4"/>
<feGaussianBlur stdDeviation="4"/>
<feComposite in2="hardAlpha" operator="out"/>
<feColorMatrix type="matrix" values="0 0 0 0 0 0 0 0 0 0 0 0 0 0 0 0 0 0 0.3 0"/>
<feBlend mode="normal" in2="effect1_dropShadow_1315_2405" result="effect2_dropShadow_1315_2405"/>
<feBlend mode="normal" in="SourceGraphic" in2="effect2_dropShadow_1315_2405" result="shape"/>
</filter>
</defs>
</svg>
