<svg width="300" height="178" viewBox="0 0 300 178" fill="none" xmlns="http://www.w3.org/2000/svg">
<path d="M1.17529 102.749L298.292 141.892" stroke="white" stroke-opacity="0.34" stroke-width="0.5"/>
<path d="M2.06689 68.0078L154.37 88.0727" stroke="white" stroke-width="2"/>
<rect width="5.036" height="27.1935" rx="1" transform="matrix(0.991571 0.130633 -0.0256627 0.99981 1.94104 72.918)" fill="white" fill-opacity="0.34"/>
<rect width="5.036" height="27.1935" rx="1" transform="matrix(0.991571 0.130633 -0.0256627 0.99981 9.43164 73.9043)" fill="white" fill-opacity="0.34"/>
<rect width="5.036" height="27.1935" rx="1" transform="matrix(0.991571 0.130633 -0.0256627 0.99981 16.9215 74.8906)" fill="white" fill-opacity="0.34"/>
<rect width="5.036" height="27.1935" rx="1" transform="matrix(0.991571 0.130633 -0.0256627 0.99981 24.4121 75.8779)" fill="white" fill-opacity="0.34"/>
<rect width="5.036" height="27.1935" rx="1" transform="matrix(0.991571 0.130633 -0.0256627 0.99981 31.9025 76.8643)" fill="white" fill-opacity="0.34"/>
<rect width="5.036" height="27.1935" rx="1" transform="matrix(0.991571 0.130633 -0.0256627 0.99981 39.3928 77.8516)" fill="white" fill-opacity="0.34"/>
<rect width="5.036" height="27.1935" rx="1" transform="matrix(0.991571 0.130633 -0.0256627 0.99981 46.8829 78.8379)" fill="white" fill-opacity="0.34"/>
<rect width="5.036" height="27.1935" rx="1" transform="matrix(0.991571 0.130633 -0.0256627 0.99981 54.3737 79.8242)" fill="white" fill-opacity="0.34"/>
<rect width="5.036" height="27.1935" rx="1" transform="matrix(0.991571 0.130633 -0.0256627 0.99981 61.8639 80.8115)" fill="white" fill-opacity="0.34"/>
<rect width="5.036" height="27.1935" rx="1" transform="matrix(0.991571 0.130633 -0.0256627 0.99981 69.3541 81.7988)" fill="white" fill-opacity="0.34"/>
<rect width="5.036" height="27.1935" rx="1" transform="matrix(0.991571 0.130633 -0.0256627 0.99981 76.8442 82.7852)" fill="white" fill-opacity="0.34"/>
<rect width="5.036" height="27.1935" rx="1" transform="matrix(0.991571 0.130633 -0.0256627 0.99981 84.3347 83.7715)" fill="white" fill-opacity="0.34"/>
<rect width="5.036" height="27.1935" rx="1" transform="matrix(0.991571 0.130633 -0.0256627 0.99981 91.8251 84.7588)" fill="white" fill-opacity="0.34"/>
<rect width="5.036" height="27.1935" rx="1" transform="matrix(0.991571 0.130633 -0.0256627 0.99981 99.3156 85.7451)" fill="white" fill-opacity="0.34"/>
<rect width="5.036" height="27.1935" rx="1" transform="matrix(0.991571 0.130633 -0.0256627 0.99981 106.806 86.7324)" fill="white" fill-opacity="0.34"/>
<rect width="5.036" height="27.1935" rx="1" transform="matrix(0.991571 0.130633 -0.0256627 0.99981 114.296 87.7188)" fill="white" fill-opacity="0.34"/>
<rect width="5.036" height="27.1935" rx="1" transform="matrix(0.991571 0.130633 -0.0256627 0.99981 121.786 88.7061)" fill="white" fill-opacity="0.34"/>
<rect width="5.036" height="27.1935" rx="1" transform="matrix(0.991571 0.130633 -0.0256627 0.99981 129.277 89.6924)" fill="white" fill-opacity="0.34"/>
<rect width="5.036" height="27.1935" rx="1" transform="matrix(0.991571 0.130633 -0.0256627 0.99981 136.767 90.6797)" fill="white" fill-opacity="0.34"/>
<rect width="5.036" height="27.1935" rx="1" transform="matrix(0.991571 0.130633 -0.0256627 0.99981 144.258 91.666)" fill="white" fill-opacity="0.34"/>
<rect width="5.036" height="27.1935" rx="1" transform="matrix(0.991571 0.130633 -0.0256627 0.99981 151.748 92.6533)" fill="white" fill-opacity="0.34"/>
<rect width="5.036" height="27.1935" rx="1" transform="matrix(0.991571 0.130633 -0.0256627 0.99981 159.238 93.6396)" fill="white" fill-opacity="0.34"/>
<rect width="5.036" height="27.1935" rx="1" transform="matrix(0.991571 0.130633 -0.0256627 0.99981 166.728 94.627)" fill="white" fill-opacity="0.34"/>
<rect width="5.036" height="27.1935" rx="1" transform="matrix(0.991571 0.130633 -0.0256627 0.99981 174.219 95.6133)" fill="white" fill-opacity="0.34"/>
<rect width="5.036" height="27.1935" rx="1" transform="matrix(0.991571 0.130633 -0.0256627 0.99981 181.709 96.6006)" fill="white" fill-opacity="0.34"/>
<rect width="5.036" height="27.1935" rx="1" transform="matrix(0.991571 0.130633 -0.0256627 0.99981 189.199 97.5869)" fill="white" fill-opacity="0.34"/>
<rect width="5.036" height="27.1935" rx="1" transform="matrix(0.991571 0.130633 -0.0256627 0.99981 196.69 98.5742)" fill="white" fill-opacity="0.34"/>
<rect width="5.036" height="27.1935" rx="1" transform="matrix(0.991571 0.130633 -0.0256627 0.99981 204.18 99.5605)" fill="white" fill-opacity="0.34"/>
<rect width="5.036" height="27.1935" rx="1" transform="matrix(0.991571 0.130633 -0.0256627 0.99981 211.671 100.548)" fill="white" fill-opacity="0.34"/>
<rect width="5.036" height="27.1935" rx="1" transform="matrix(0.991571 0.130633 -0.0256627 0.99981 219.161 101.534)" fill="white" fill-opacity="0.34"/>
<rect width="5.036" height="27.1935" rx="1" transform="matrix(0.991571 0.130633 -0.0256627 0.99981 226.651 102.521)" fill="white" fill-opacity="0.34"/>
<rect width="5.036" height="27.1935" rx="1" transform="matrix(0.991571 0.130633 -0.0256627 0.99981 234.141 103.508)" fill="white" fill-opacity="0.34"/>
<rect width="5.036" height="36.258" rx="1" transform="matrix(0.991571 0.130633 -0.0256627 0.99981 241.864 95.4316)" fill="#FC4E51"/>
<rect width="5.036" height="36.258" rx="1" transform="matrix(0.991571 0.130633 -0.0256627 0.99981 249.355 96.4189)" fill="#FC4E51"/>
<rect width="5.036" height="36.258" rx="1" transform="matrix(0.991571 0.130633 -0.0256627 0.99981 256.845 97.4053)" fill="#FC4E51"/>
<rect width="5.036" height="36.258" rx="1" transform="matrix(0.991571 0.130633 -0.0256627 0.99981 264.335 98.3926)" fill="#FC4E51"/>
<rect width="5.036" height="36.258" rx="1" transform="matrix(0.991571 0.130633 -0.0256627 0.99981 271.826 99.3789)" fill="#FC4E51"/>
<rect width="5.036" height="36.258" rx="1" transform="matrix(0.991571 0.130633 -0.0256627 0.99981 279.316 100.365)" fill="#FC4E51"/>
<rect width="5.036" height="36.258" rx="1" transform="matrix(0.991571 0.130633 -0.0256627 0.99981 286.806 101.353)" fill="#FC4E51"/>
<rect width="5.036" height="36.258" rx="1" transform="matrix(0.991571 0.130633 -0.0256627 0.99981 294.297 102.34)" fill="#FC4E51"/>
<g filter="url(#filter0_d_1267_1926)">
<ellipse cx="3.1475" cy="3.77688" rx="3.1475" ry="3.77688" transform="matrix(0.991571 0.130633 -0.0256627 0.99981 150.732 83.4258)" fill="#9643FF"/>
</g>
<text transform="matrix(0.991571 0.130633 -0.0256627 0.99981 4.19128 0)" fill="white" xml:space="preserve" style="white-space: pre" font-family="ExoSoft-Bold" font-size="72" letter-spacing="0em"><tspan x="45.2812" y="52.11">85</tspan></text>
<text transform="matrix(0.991571 0.130633 -0.0256627 0.99981 4.19128 0)" fill="white" fill-opacity="0.34" xml:space="preserve" style="white-space: pre" font-family="ExoSoft-Bold" font-size="72" letter-spacing="0em"><tspan x="0" y="52.11">0</tspan></text>
<text transform="matrix(0.991571 0.130633 -0.0256627 0.99981 149.642 36)" fill="white" fill-opacity="0.34" xml:space="preserve" style="white-space: pre" font-family="ExoSoft-Bold" font-size="18" letter-spacing="0em"><tspan x="0" y="21.6223">KM/H</tspan></text>
<text transform="matrix(0.991571 0.130633 -0.0256627 0.99981 0.436279 113.998)" fill="white" xml:space="preserve" style="white-space: pre" font-family="ExoSoft-Bold" font-size="14" letter-spacing="0em"><tspan x="0" y="12.392">45L</tspan></text>
<g clip-path="url(#clip0_1267_1926)">
<path d="M224.799 146.121L224.682 149.665L223.586 149.521L221.087 145.639L217.566 145.175L217.602 143.793L221.03 144.244L221.076 142.467L212.749 141.37L212.704 143.147L216.132 143.599L216.097 144.982L212.335 144.486L210.58 146.664L207.147 146.212L207.023 151.026L205.632 150.843L205.721 147.374L204.251 147.18L204.024 156.03L205.494 156.223L205.586 152.62L206.978 152.804L206.848 157.855L210.303 158.31L211.984 160.765L220.666 161.903L223.369 158.735L224.445 158.877L224.375 162.63L228.892 163.225L229.314 146.761L224.799 146.121ZM227.468 161.253L225.878 161.044L225.948 157.291L222.76 156.871L220.057 160.039L212.662 159.07L210.982 156.616L208.363 156.271L208.571 148.183L211.211 148.531L212.967 146.353L220.379 147.33L222.878 151.212L226.092 151.635L226.209 148.105L227.8 148.331L227.468 161.253Z" fill="white"/>
</g>
<g filter="url(#filter1_d_1267_1926)">
<ellipse cx="3.777" cy="4.53225" rx="3.777" ry="4.53225" transform="matrix(0.991571 0.130633 -0.0256627 0.99981 236.712 151.359)" fill="#A0E557"/>
</g>
<g filter="url(#filter2_d_1267_1926)">
<ellipse cx="3.777" cy="4.53225" rx="3.777" ry="4.53225" transform="matrix(0.991571 0.130633 -0.0256627 0.99981 183.38 144.442)" fill="#A0E557"/>
</g>
<g clip-path="url(#clip1_1267_1926)">
<path d="M259.33 154.63L259.041 165.878L275.036 167.985L275.209 161.26L278.037 157.838L278.252 149.464L265.835 147.828L259.33 154.63ZM273.667 160.344L273.524 165.891L260.65 164.195L260.856 156.171L275.524 158.103L273.667 160.344ZM276.643 151.147L276.51 156.339L262.009 154.428L266.433 149.801L276.643 151.147Z" fill="white"/>
<path d="M268.598 159.56L271.719 159.971L271.671 161.859L268.55 161.448L268.598 159.56Z" fill="white"/>
</g>
<g filter="url(#filter3_d_1267_1926)">
<ellipse cx="3.777" cy="4.53225" rx="3.777" ry="4.53225" transform="matrix(0.991571 0.130633 -0.0256627 0.99981 288.094 156.444)" fill="#EA3942"/>
</g>
<path fill-rule="evenodd" clip-rule="evenodd" d="M238.089 16.2613C236.993 16.117 236.082 16.8953 236.054 17.9996L234.877 63.8457C234.849 64.95 235.714 65.9623 236.809 66.1066L295.262 73.8074C296.358 73.9517 297.268 73.1734 297.297 72.069L298.474 26.223C298.502 25.1186 297.637 24.1064 296.542 23.9621L238.089 16.2613ZM259.456 57.3658C262.115 57.9569 264.408 58.3795 266.336 58.6334C269.43 59.041 271.634 58.7655 272.948 57.807C274.262 56.8246 274.929 55.0344 274.948 52.4367C274.97 50.6579 274.707 49.2509 274.161 48.2159C273.638 47.1839 272.703 46.4107 271.355 45.896C271.166 45.8229 271.072 45.7384 271.075 45.6424C271.077 45.5464 271.175 45.475 271.367 45.4281C272.23 45.301 272.907 44.9809 273.397 44.4677C273.912 43.9576 274.262 43.3297 274.449 42.5837C274.659 41.841 274.779 40.8937 274.808 39.7419C274.846 38.2782 274.59 37.0888 274.04 36.1737C273.49 35.2586 272.637 34.5563 271.479 34.0667C270.323 33.5532 268.745 33.1647 266.746 32.9014C264.723 32.6349 262.685 32.4988 260.631 32.4931C259.533 32.4929 259.005 33.0494 259.048 34.1625L259.067 34.8511C259.11 35.9643 259.679 36.569 260.775 36.6653C262.775 36.8806 264.418 37.073 265.703 37.2423C267.297 37.4523 268.352 37.7598 268.867 38.1647C269.383 38.5456 269.637 39.3255 269.631 40.5044C269.617 41.0563 269.569 41.5075 269.489 41.8581C269.409 42.1846 269.245 42.5002 268.999 42.8047C268.777 43.0885 268.413 43.2814 267.909 43.3835C267.43 43.4648 266.797 43.4537 266.012 43.3502L262.942 42.9458C261.919 42.811 261.394 43.2595 261.367 44.2913L261.35 44.9752C261.323 46.007 261.822 46.5783 262.846 46.6891L265.916 47.0935C267.416 47.267 268.408 47.6627 268.894 48.2804C269.404 48.8773 269.643 49.7876 269.612 51.0114C269.576 52.4031 269.231 53.2966 268.576 53.6919C267.921 54.0871 266.725 54.1703 264.988 53.9414C263.703 53.7721 262.002 53.524 259.885 53.197C258.768 52.9776 258.16 53.4271 258.06 54.5455L258.004 55.3327C257.928 56.4302 258.412 57.1079 259.456 57.3658Z" fill="#9643FF"/>
<text transform="matrix(0.991571 0.130633 -0.0256627 0.99981 245.583 71.4434)" fill="white" fill-opacity="0.34" xml:space="preserve" style="white-space: pre" font-family="ExoSoft-Bold" font-size="14" letter-spacing="0em"><tspan x="0" y="12.392">GEAR</tspan></text>
<rect width="13.2402" height="78.435" rx="2" transform="matrix(0.0631852 -0.99733 0.988368 0.132831 28.1476 131.647)" fill="white" fill-opacity="0.34"/>
<rect width="13.2403" height="62.4893" rx="2" transform="matrix(0.0635084 -0.997275 0.988393 0.131907 28.3401 131.741)" fill="#9643FF"/>
<path d="M136.761 133.575L136.775 133.558L132.962 129.443L131.687 131.008L133.658 133.134C133.149 133.414 132.738 133.87 132.48 134.444C132.222 135.018 132.127 135.683 132.209 136.352C132.328 137.37 132.909 138.313 133.676 138.9C134.538 139.56 135.309 139.612 135.998 139.425L135.807 146.292C135.804 146.477 135.76 146.653 135.68 146.805C135.6 146.958 135.486 147.081 135.348 147.165C135.211 147.249 135.055 147.291 134.893 147.286C134.732 147.281 134.57 147.23 134.424 147.138C134.309 147.066 134.206 146.97 134.12 146.856C134.032 146.741 133.964 146.61 133.918 146.469C133.873 146.328 133.852 146.181 133.856 146.035L133.935 143.816C133.947 143.379 133.883 142.936 133.747 142.512C133.61 142.089 133.404 141.693 133.139 141.349C132.875 141.003 132.558 140.714 132.207 140.499C131.856 140.284 131.477 140.148 131.092 140.097L130.115 139.968L130.343 131.079C130.375 129.854 129.525 128.742 128.448 128.6L121.614 127.7C120.537 127.558 119.635 128.439 119.604 129.665L119.205 145.22C119.173 146.446 120.023 147.558 121.1 147.699L127.935 148.6C129.011 148.742 129.913 147.86 129.944 146.635L130.058 142.19L131.035 142.319C131.167 142.337 131.295 142.383 131.414 142.456C131.644 142.602 131.823 142.838 131.917 143.117C131.964 143.26 131.987 143.41 131.982 143.559L131.902 145.778C131.89 146.229 131.956 146.676 132.099 147.106C132.236 147.524 132.439 147.909 132.698 148.245C132.961 148.593 133.277 148.882 133.629 149.097C133.98 149.312 134.36 149.448 134.745 149.497C135.142 149.549 135.527 149.513 135.892 149.385C136.246 149.264 136.567 149.065 136.839 148.795C137.12 148.522 137.347 148.183 137.505 147.798C137.663 147.412 137.749 146.988 137.76 146.55L138.04 136.553C138.053 135.995 137.943 135.429 137.72 134.909C137.496 134.388 137.166 133.93 136.761 133.575V133.575ZM121.557 129.922L128.391 130.822L128.278 135.267L121.443 134.366L121.557 129.922ZM121.157 145.477L121.385 136.588L128.221 137.489L127.994 146.378L121.157 145.477ZM135.082 137.278C134.824 137.244 134.578 137.094 134.4 136.862C134.223 136.629 134.127 136.333 134.135 136.038C134.142 135.744 134.252 135.475 134.441 135.29C134.629 135.106 134.881 135.022 135.14 135.056C135.398 135.09 135.644 135.24 135.822 135.472C135.999 135.705 136.095 136.001 136.087 136.296C136.08 136.59 135.97 136.859 135.781 137.044C135.593 137.228 135.341 137.312 135.082 137.278Z" fill="white"/>
<g clip-path="url(#clip2_1267_1926)">
<path d="M163.781 138.137L160.562 134.137C160.405 133.942 160.111 133.905 159.906 134.055C159.702 134.204 159.663 134.484 159.82 134.679L162.755 138.325L159.3 140.851L156.365 137.205C156.208 137.01 155.914 136.973 155.709 137.123C155.505 137.272 155.466 137.552 155.623 137.747L158.842 141.748C158.921 141.845 159.034 141.903 159.152 141.918C159.271 141.933 159.396 141.904 159.497 141.83L163.694 138.762C163.899 138.612 163.938 138.332 163.781 138.137Z" fill="white"/>
<path d="M166.676 139.662L165.399 138.076C164.928 137.491 164.047 137.38 163.433 137.829L158.65 141.325C158.352 141.544 158.162 141.859 158.113 142.213C158.064 142.567 158.162 142.917 158.389 143.198C158.771 143.671 159.264 144.301 159.639 144.782C159.865 145.072 160.194 145.259 160.569 145.309C160.573 145.309 160.577 145.31 160.581 145.31C160.952 145.357 161.32 145.263 161.618 145.044L166.416 141.536C167.03 141.088 167.146 140.247 166.676 139.662ZM165.848 140.83L161.05 144.338C160.949 144.412 160.811 144.437 160.7 144.426C160.576 144.41 160.467 144.348 160.391 144.252C160.013 143.766 159.517 143.133 159.132 142.656C159.057 142.562 159.024 142.447 159.04 142.33C159.056 142.211 159.12 142.106 159.219 142.033L164.002 138.537C164.105 138.462 164.229 138.434 164.348 138.449C164.466 138.464 164.579 138.522 164.658 138.62L165.935 140.205C166.01 140.3 166.043 140.416 166.027 140.534C166.01 140.653 165.947 140.757 165.848 140.83Z" fill="white"/>
<path d="M168.086 144.521L165.672 141.521C165.515 141.326 165.221 141.289 165.016 141.438C164.812 141.588 164.773 141.868 164.93 142.063L167.059 144.709L164.653 146.468L162.523 143.822C162.366 143.627 162.072 143.59 161.868 143.739C161.663 143.889 161.624 144.169 161.781 144.364L164.196 147.364C164.275 147.461 164.387 147.519 164.506 147.534C164.625 147.549 164.749 147.521 164.852 147.446L168 145.145C168.204 144.996 168.243 144.716 168.086 144.521Z" fill="white"/>
<path d="M164.463 140.02C164.306 139.825 164.013 139.788 163.808 139.938L160.66 142.239C160.456 142.389 160.417 142.669 160.574 142.864C160.653 142.961 160.765 143.019 160.884 143.034C161.003 143.049 161.127 143.021 161.229 142.946L164.377 140.645C164.582 140.495 164.62 140.215 164.463 140.02Z" fill="white"/>
<path d="M175.853 153.137L173.439 150.137C173.282 149.942 172.988 149.905 172.783 150.055L168.586 153.123C168.382 153.272 168.343 153.552 168.5 153.747L170.914 156.748C170.993 156.845 171.106 156.903 171.225 156.918C171.343 156.933 171.468 156.904 171.57 156.829C171.774 156.679 171.813 156.399 171.656 156.204L169.527 153.558L172.982 151.032L175.111 153.679C175.268 153.874 175.562 153.911 175.767 153.762C175.971 153.612 176.01 153.332 175.853 153.137Z" fill="white"/>
<path d="M173.521 150.298C173.503 150.229 173.469 150.167 173.422 150.116C173.291 149.901 172.698 148.715 171.402 145.976C171.226 145.604 170.887 145.333 170.473 145.233C170.054 145.133 169.617 145.22 169.273 145.472L164.84 148.713C164.501 148.961 164.301 149.336 164.292 149.744C164.283 150.152 164.465 150.536 164.793 150.799L168.571 153.818C168.641 153.874 168.724 153.907 168.811 153.918C168.93 153.933 169.055 153.904 169.155 153.828L173.352 150.76C173.5 150.652 173.566 150.471 173.521 150.298ZM168.885 152.906L165.395 150.116C165.285 150.029 165.225 149.901 165.228 149.765C165.23 149.628 165.298 149.503 165.41 149.421L169.843 146.18C169.945 146.106 170.069 146.074 170.192 146.09C170.21 146.092 170.227 146.095 170.248 146.099C170.327 146.118 170.473 146.175 170.552 146.344C171.633 148.629 172.161 149.741 172.463 150.29L168.885 152.906Z" fill="white"/>
<path d="M170.902 148.02C170.745 147.825 170.451 147.788 170.247 147.938L167.099 150.239C166.894 150.389 166.856 150.669 167.012 150.864C167.091 150.961 167.204 151.019 167.323 151.034C167.441 151.049 167.566 151.021 167.668 150.946L170.816 148.645C171.02 148.496 171.059 148.215 170.902 148.02Z" fill="white"/>
<path d="M168.912 139.548C168.656 139.516 168.421 139.688 168.387 139.932L168.265 140.816C168.231 141.059 168.411 141.283 168.667 141.316C168.923 141.348 169.158 141.176 169.192 140.932L169.314 140.049C169.348 139.805 169.168 139.581 168.912 139.548Z" fill="white"/>
<path d="M172.131 143.549L171.204 143.432C170.948 143.4 170.713 143.572 170.679 143.816C170.646 144.06 170.826 144.284 171.082 144.316L172.009 144.432C172.265 144.464 172.5 144.293 172.533 144.049C172.567 143.805 172.387 143.581 172.131 143.549Z" fill="white"/>
<path d="M171.88 140.953C171.723 140.757 171.429 140.721 171.224 140.87L170.175 141.637C169.97 141.787 169.932 142.067 170.089 142.262C170.168 142.359 170.28 142.417 170.399 142.432C170.518 142.447 170.642 142.419 170.744 142.344L171.793 141.577C171.998 141.428 172.037 141.148 171.88 140.953Z" fill="white"/>
<path d="M162.81 149.569C162.554 149.537 162.319 149.709 162.285 149.953L162.163 150.836C162.129 151.08 162.31 151.304 162.566 151.336C162.821 151.368 163.056 151.196 163.09 150.953L163.212 150.069C163.246 149.825 163.066 149.601 162.81 149.569Z" fill="white"/>
<path d="M160.396 146.568L159.469 146.452C159.213 146.42 158.978 146.591 158.944 146.835C158.91 147.079 159.09 147.303 159.346 147.335L160.273 147.452C160.529 147.484 160.764 147.312 160.798 147.068C160.832 146.824 160.651 146.6 160.396 146.568Z" fill="white"/>
<path d="M161.387 148.623C161.23 148.428 160.936 148.391 160.732 148.541L159.683 149.308C159.478 149.458 159.439 149.738 159.596 149.933C159.675 150.03 159.788 150.088 159.907 150.103C160.025 150.118 160.15 150.09 160.252 150.015L161.301 149.248C161.505 149.099 161.544 148.818 161.387 148.623Z" fill="white"/>
</g>
<defs>
<filter id="filter0_d_1267_1926" x="146.634" y="79.8145" width="14.2451" height="15.5977" filterUnits="userSpaceOnUse" color-interpolation-filters="sRGB">
<feFlood flood-opacity="0" result="BackgroundImageFix"/>
<feColorMatrix in="SourceAlpha" type="matrix" values="0 0 0 0 0 0 0 0 0 0 0 0 0 0 0 0 0 0 127 0" result="hardAlpha"/>
<feOffset/>
<feGaussianBlur stdDeviation="2"/>
<feColorMatrix type="matrix" values="0 0 0 0 0.72549 0 0 0 0 0.513726 0 0 0 0 1 0 0 0 1 0"/>
<feBlend mode="normal" in2="BackgroundImageFix" result="effect1_dropShadow_1267_1926"/>
<feBlend mode="normal" in="SourceGraphic" in2="effect1_dropShadow_1267_1926" result="shape"/>
</filter>
<filter id="filter1_d_1267_1926" x="232.594" y="147.825" width="15.494" height="17.1172" filterUnits="userSpaceOnUse" color-interpolation-filters="sRGB">
<feFlood flood-opacity="0" result="BackgroundImageFix"/>
<feColorMatrix in="SourceAlpha" type="matrix" values="0 0 0 0 0 0 0 0 0 0 0 0 0 0 0 0 0 0 127 0" result="hardAlpha"/>
<feOffset/>
<feGaussianBlur stdDeviation="2"/>
<feColorMatrix type="matrix" values="0 0 0 0 0.627451 0 0 0 0 0.898039 0 0 0 0 0.341176 0 0 0 0.5 0"/>
<feBlend mode="normal" in2="BackgroundImageFix" result="effect1_dropShadow_1267_1926"/>
<feBlend mode="normal" in="SourceGraphic" in2="effect1_dropShadow_1267_1926" result="shape"/>
</filter>
<filter id="filter2_d_1267_1926" x="179.262" y="140.908" width="15.494" height="17.1172" filterUnits="userSpaceOnUse" color-interpolation-filters="sRGB">
<feFlood flood-opacity="0" result="BackgroundImageFix"/>
<feColorMatrix in="SourceAlpha" type="matrix" values="0 0 0 0 0 0 0 0 0 0 0 0 0 0 0 0 0 0 127 0" result="hardAlpha"/>
<feOffset/>
<feGaussianBlur stdDeviation="2"/>
<feColorMatrix type="matrix" values="0 0 0 0 0.627451 0 0 0 0 0.898039 0 0 0 0 0.341176 0 0 0 0.5 0"/>
<feBlend mode="normal" in2="BackgroundImageFix" result="effect1_dropShadow_1267_1926"/>
<feBlend mode="normal" in="SourceGraphic" in2="effect1_dropShadow_1267_1926" result="shape"/>
</filter>
<filter id="filter3_d_1267_1926" x="283.975" y="152.91" width="15.494" height="17.1172" filterUnits="userSpaceOnUse" color-interpolation-filters="sRGB">
<feFlood flood-opacity="0" result="BackgroundImageFix"/>
<feColorMatrix in="SourceAlpha" type="matrix" values="0 0 0 0 0 0 0 0 0 0 0 0 0 0 0 0 0 0 127 0" result="hardAlpha"/>
<feOffset/>
<feGaussianBlur stdDeviation="2"/>
<feColorMatrix type="matrix" values="0 0 0 0 0.917647 0 0 0 0 0.223529 0 0 0 0 0.258824 0 0 0 0.5 0"/>
<feBlend mode="normal" in2="BackgroundImageFix" result="effect1_dropShadow_1267_1926"/>
<feBlend mode="normal" in="SourceGraphic" in2="effect1_dropShadow_1267_1926" result="shape"/>
</filter>
<clipPath id="clip0_1267_1926">
<rect width="25.18" height="30.215" fill="white" transform="matrix(0.991571 0.130633 -0.0256627 0.99981 204.564 135)"/>
</clipPath>
<clipPath id="clip1_1267_1926">
<rect width="18.885" height="22.6613" fill="white" transform="matrix(0.991571 0.130633 -0.0256627 0.99981 259.575 145.109)"/>
</clipPath>
<clipPath id="clip2_1267_1926">
<rect width="22.4232" height="21.4065" fill="white" transform="matrix(0.992199 0.124666 -0.137014 0.990569 156.08 133.442)"/>
</clipPath>
</defs>
</svg>
