<svg width="65" height="58" viewBox="0 0 65 58" fill="none" xmlns="http://www.w3.org/2000/svg">
<path fill-rule="evenodd" clip-rule="evenodd" d="M4.08861 0.261265C2.99335 0.116973 2.08249 0.895262 2.05414 1.99962L0.877384 47.8457C0.849038 48.95 1.71394 49.9623 2.8092 50.1066L61.2623 57.8074C62.3576 57.9517 63.2685 57.1734 63.2968 56.069L64.4736 10.223C64.5019 9.11859 63.637 8.10636 62.5418 7.96207L4.08861 0.261265ZM25.4557 41.3658C28.1149 41.9569 30.4083 42.3795 32.3359 42.6334C35.4297 43.041 37.6335 42.7655 38.9475 41.807C40.2622 40.8246 40.929 39.0344 40.9479 36.4367C40.9697 34.6579 40.7073 33.2509 40.1608 32.2159C39.6381 31.1839 38.7028 30.4107 37.3549 29.896C37.1658 29.8229 37.0725 29.7384 37.0749 29.6424C37.0774 29.5464 37.1747 29.475 37.367 29.4281C38.2298 29.301 38.9066 28.9809 39.3974 28.4677C39.9119 27.9576 40.2623 27.3297 40.4486 26.5837C40.6587 25.841 40.7785 24.8937 40.8081 23.7419C40.8457 22.2782 40.5897 21.0888 40.0401 20.1737C39.4905 19.2586 38.637 18.5563 37.4795 18.0667C36.3226 17.5532 34.7447 17.1647 32.7457 16.9014C30.7229 16.6349 28.6848 16.4988 26.6314 16.4931C25.533 16.4929 25.0054 17.0494 25.0484 18.1625L25.0666 18.8511C25.1096 19.9643 25.6791 20.569 26.7751 20.6653C28.7753 20.8806 30.418 21.073 31.703 21.2423C33.2975 21.4523 34.3522 21.7598 34.8671 22.1647C35.3826 22.5456 35.6372 23.3255 35.6308 24.5044C35.6167 25.0563 35.5693 25.5075 35.4886 25.8581C35.4086 26.1846 35.2453 26.5002 34.9987 26.8047C34.7765 27.0885 34.4134 27.2814 33.9093 27.3835C33.4297 27.4648 32.7972 27.4537 32.0119 27.3502L28.942 26.9458C27.9187 26.811 27.3938 27.2595 27.3673 28.2913L27.3497 28.9752C27.3233 30.007 27.822 30.5783 28.8459 30.6891L31.9158 31.0935C33.4157 31.267 34.4084 31.6627 34.894 32.2804C35.404 32.8773 35.6433 33.7876 35.6119 35.0114C35.5761 36.4031 35.2309 37.2966 34.576 37.6919C33.9211 38.0871 32.7251 38.1703 30.9879 37.9414C29.7028 37.7721 28.0019 37.524 25.8851 37.197C24.7685 36.9776 24.16 37.4271 24.0596 38.5455L24.0036 39.3327C23.9277 40.4302 24.4117 41.1079 25.4557 41.3658Z" fill="#9643FF"/>
</svg>
